<?xml version="1.0" encoding="UTF-8"?>
<svg xmlns="http://www.w3.org/2000/svg" xmlns:xlink="http://www.w3.org/1999/xlink" width="200pt" height="50pt" viewBox="0 0 200 50" version="1.1">
<g id="surface1">
<path style=" stroke:none;fill-rule:nonzero;fill:rgb(0%,0%,0%);fill-opacity:1;" d="M 30.765625 12.464844 C 24.753906 12.464844 19.859375 13.6875 19.859375 15.191406 L 19.859375 20.832031 C 19.859375 22.335938 24.753906 23.558594 30.765625 23.558594 C 36.777344 23.558594 41.667969 22.335938 41.667969 20.832031 L 41.667969 15.191406 C 41.667969 13.6875 36.777344 12.464844 30.765625 12.464844 Z M 30.765625 14.625 C 32.011719 14.625 33.027344 14.878906 33.027344 15.191406 L 33.027344 16.890625 L 28.5 16.890625 L 28.5 15.191406 C 28.5 14.878906 29.515625 14.625 30.765625 14.625 Z M 30.765625 21.398438 C 29.515625 21.398438 28.5 21.144531 28.5 20.832031 L 28.5 19.050781 L 33.027344 19.050781 L 33.027344 20.832031 C 33.027344 21.144531 32.011719 21.398438 30.765625 21.398438 Z M 30.765625 21.398438 "/>
<path style=" stroke:none;fill-rule:nonzero;fill:rgb(0%,0%,0%);fill-opacity:1;" d="M 195.679688 13.089844 L 184.824219 13.089844 C 182.453125 10.332031 172.628906 8.257812 160.898438 8.257812 L 147.53125 8.257812 L 147.53125 4.480469 C 147.53125 3.882812 145.59375 3.402344 143.207031 3.402344 L 140.945312 3.402344 L 140.945312 2.417969 C 140.945312 1.820312 139.011719 1.335938 136.625 1.335938 C 134.242188 1.335938 132.304688 1.820312 132.304688 2.417969 L 132.304688 3.402344 L 130.042969 3.402344 C 127.65625 3.402344 125.722656 3.882812 125.722656 4.480469 L 125.722656 8.257812 L 122.609375 8.257812 L 122.609375 4.480469 C 122.609375 3.882812 120.675781 3.402344 118.289062 3.402344 L 116.027344 3.402344 L 116.027344 2.417969 C 116.027344 1.820312 114.09375 1.335938 111.707031 1.335938 C 109.320312 1.335938 107.386719 1.820312 107.386719 2.417969 L 107.386719 3.402344 L 105.125 3.402344 C 102.738281 3.402344 100.804688 3.882812 100.804688 4.480469 L 100.804688 8.257812 L 35.085938 8.257812 L 35.085938 6.628906 C 35.085938 6.03125 33.148438 5.546875 30.765625 5.546875 C 28.378906 5.546875 26.445312 6.03125 26.445312 6.628906 L 26.445312 8.257812 L 24.476562 8.257812 C 10.980469 8.257812 0 11.003906 0 14.378906 L 0 26.679688 C 0 27.277344 1.933594 27.761719 4.320312 27.761719 L 14.402344 27.761719 L 14.402344 29.894531 C 14.402344 30.492188 16.335938 30.972656 18.722656 30.972656 L 26.445312 30.972656 L 26.445312 33.914062 L 13.847656 33.914062 C 6.210938 33.914062 0 35.464844 0 37.375 L 0 47.582031 C 0 48.179688 1.933594 48.664062 4.320312 48.664062 L 181.050781 48.664062 C 183.4375 48.664062 185.371094 48.179688 185.371094 47.582031 L 185.371094 25.597656 L 195.679688 25.597656 C 198.066406 25.597656 200 25.113281 200 24.515625 L 200 14.171875 C 200 13.574219 198.066406 13.089844 195.679688 13.089844 Z M 134.363281 5.5625 L 138.886719 5.5625 L 138.886719 8.257812 L 134.363281 8.257812 Z M 109.445312 5.5625 L 113.96875 5.5625 L 113.96875 8.257812 L 109.445312 8.257812 Z M 23.042969 27.761719 L 38.484375 27.761719 L 38.484375 28.8125 L 23.042969 28.8125 Z M 35.085938 30.972656 L 42.804688 30.972656 C 45.191406 30.972656 47.125 30.492188 47.125 29.894531 L 47.125 27.761719 L 57.207031 27.761719 C 59.59375 27.761719 61.527344 27.277344 61.527344 26.679688 L 61.527344 24.453125 C 61.527344 23.65625 64.121094 23.007812 67.308594 23.007812 L 101.589844 23.007812 C 104.777344 23.007812 107.371094 23.65625 107.371094 24.453125 L 107.371094 33.914062 L 35.085938 33.914062 Z M 13.847656 36.074219 L 111.691406 36.074219 C 114.074219 36.074219 116.011719 35.589844 116.011719 34.992188 L 116.011719 24.453125 C 116.011719 22.464844 109.542969 20.847656 101.589844 20.847656 L 67.308594 20.847656 C 59.355469 20.847656 52.886719 22.464844 52.886719 24.453125 L 52.886719 25.601562 L 8.640625 25.601562 L 8.640625 14.378906 C 8.640625 12.195312 15.742188 10.417969 24.476562 10.417969 L 160.898438 10.417969 C 169.628906 10.417969 176.730469 12.195312 176.730469 14.378906 L 176.730469 43.027344 L 8.640625 43.027344 L 8.640625 37.375 C 8.640625 36.65625 10.976562 36.074219 13.847656 36.074219 Z M 8.640625 46.503906 L 8.640625 45.1875 L 176.730469 45.1875 L 176.730469 46.503906 Z M 191.359375 23.433594 L 185.371094 23.433594 L 185.371094 15.25 L 191.359375 15.25 Z M 191.359375 23.433594 "/>
<path style=" stroke:none;fill-rule:nonzero;fill:rgb(0%,0%,0%);fill-opacity:1;" d="M 92.46875 12.464844 C 84.820312 12.464844 78.601562 14.019531 78.601562 15.929688 C 78.601562 17.84375 84.820312 19.398438 92.46875 19.398438 C 100.113281 19.398438 106.335938 17.84375 106.335938 15.929688 C 106.335938 14.019531 100.113281 12.464844 92.46875 12.464844 Z M 92.46875 17.238281 C 89.585938 17.238281 87.242188 16.652344 87.242188 15.929688 C 87.242188 15.210938 89.585938 14.625 92.46875 14.625 C 95.351562 14.625 97.695312 15.210938 97.695312 15.929688 C 97.695312 16.652344 95.351562 17.238281 92.46875 17.238281 Z M 92.46875 17.238281 "/>
<path style=" stroke:none;fill-rule:nonzero;fill:rgb(0%,0%,0%);fill-opacity:1;" d="M 139.128906 15.929688 C 139.128906 14.019531 132.910156 12.464844 125.261719 12.464844 C 117.613281 12.464844 111.394531 14.019531 111.394531 15.929688 C 111.394531 17.84375 117.613281 19.398438 125.261719 19.398438 C 132.910156 19.398438 139.128906 17.84375 139.128906 15.929688 Z M 120.035156 15.929688 C 120.035156 15.210938 122.378906 14.625 125.261719 14.625 C 128.144531 14.625 130.488281 15.210938 130.488281 15.929688 C 130.488281 16.652344 128.144531 17.238281 125.261719 17.238281 C 122.378906 17.238281 120.035156 16.652344 120.035156 15.929688 Z M 120.035156 15.929688 "/>
<path style=" stroke:none;fill-rule:nonzero;fill:rgb(0%,0%,0%);fill-opacity:1;" d="M 122.796875 33.230469 L 122.796875 34.992188 C 122.796875 35.589844 124.730469 36.074219 127.117188 36.074219 L 164.613281 36.074219 C 167 36.074219 168.933594 35.589844 168.933594 34.992188 L 168.933594 33.230469 C 168.933594 31.542969 163.433594 30.164062 156.667969 30.164062 L 135.0625 30.164062 C 128.296875 30.164062 122.796875 31.542969 122.796875 33.230469 Z M 160.292969 33.230469 L 160.292969 33.914062 L 131.4375 33.914062 L 131.4375 33.230469 C 131.4375 32.734375 133.0625 32.328125 135.0625 32.328125 L 156.667969 32.328125 C 158.667969 32.328125 160.292969 32.734375 160.292969 33.230469 Z M 160.292969 33.230469 "/>
</g>
</svg>
